# xmcd
#
# Track frame offsets: 
#        150
#        19950
#        51093
#        86071
#        113291
#        151471
#        178921
#        218111
#
# Disc length: 3335 seconds
#
# Revision: 0
# Processed by: cddbd v1.5.2PL0 Copyright (c) Steve Scherf et al.
# Submitted via: ExactAudioCopy v0.99pb3
#
DISCID=640d0508
DTITLE=Insanity Cult - Of Despair and Self-Destruction [DigiCD]
DYEAR=2017
DGENRE=Black Metal
TTITLE0=[prologue] The Light That Drowned Itself
TTITLE1=Seeds of Lesser Gods
TTITLE2=All Now Are Wounds
TTITLE3=IX
TTITLE4=[interlude] The Bitter Wind of Remembrance
TTITLE5=In My Abysmal Dreams
TTITLE6=Birth of Eos
TTITLE7=Sinister Lights and Manic-Depression
EXTD=
EXTT0=
EXTT1=
EXTT2=
EXTT3=
EXTT4=
EXTT5=
EXTT6=
EXTT7=
PLAYORDER=
